<svg width="619" height="396" viewBox="0 0 619 396" fill="none" xmlns="http://www.w3.org/2000/svg">
<path d="M493.932 179.884H491.84C486.261 129.201 441.635 89.477 388.642 89.477C370.512 89.477 353.08 94.2713 337.74 102.49C317.519 62.081 275.682 34 226.175 34C157.841 34 102.756 88.1072 102.756 155.228C102.756 164.816 104.15 173.72 105.545 182.624C67.8913 190.842 40 224.403 40 263.442C40 309.33 78.3506 347 125.069 347L139.014 346.315H479.289L493.932 347C540.65 347 579 310.015 579 263.442C579 216.869 540.65 179.884 493.932 179.884Z" fill="url(#paint0_linear_620_454)"/>
<g filter="url(#filter0_d_620_454)">
<path d="M218.215 334.033C214.784 336.418 210.232 336.418 206.8 334.034L106.293 264.184C103.604 262.315 102 259.247 102 255.972V88.9436C102 84.7463 104.605 81.0276 108.636 79.8592C122.839 75.7431 159.287 67 212.649 67C265.985 67 302.249 75.7342 316.384 79.8529C320.405 81.0246 323 84.7373 323 88.926V255.973C323 259.247 321.396 262.315 318.707 264.184L218.215 334.033Z" fill="url(#paint1_linear_620_454)"/>
<path d="M216.788 331.98C214.215 333.769 210.801 333.769 208.227 331.981L107.72 262.131C105.703 260.729 104.5 258.429 104.5 255.972V88.9436C104.5 85.7781 106.445 83.0971 109.332 82.2604C123.347 78.1985 159.559 69.5 212.649 69.5C265.712 69.5 301.739 78.1896 315.685 82.2531C318.563 83.0917 320.5 85.767 320.5 88.926V255.973C320.5 258.429 319.297 260.729 317.281 262.131L216.788 331.98Z" stroke="#168982" stroke-opacity="0.2" stroke-width="5"/>
<g opacity="0.5" filter="url(#filter1_d_620_454)">
<path d="M129.871 205.797C129.616 205.797 129.553 205.669 129.68 205.478L131.017 203.759C131.145 203.568 131.463 203.44 131.718 203.44H154.453C154.708 203.44 154.772 203.631 154.644 203.823L153.562 205.478C153.434 205.669 153.116 205.86 152.925 205.86L129.871 205.797Z" fill="white"/>
<path d="M120.255 211.656C120 211.656 119.936 211.528 120.064 211.337L121.401 209.618C121.528 209.427 121.847 209.299 122.102 209.299H151.142C151.397 209.299 151.524 209.49 151.46 209.681L150.951 211.21C150.887 211.465 150.632 211.592 150.378 211.592L120.255 211.656Z" fill="white"/>
<path d="M135.666 217.515C135.412 217.515 135.348 217.324 135.475 217.133L136.367 215.541C136.494 215.35 136.749 215.158 137.004 215.158H149.741C149.995 215.158 150.123 215.349 150.123 215.604L149.995 217.133C149.995 217.387 149.741 217.578 149.55 217.578L135.666 217.515Z" fill="white"/>
<path d="M201.771 204.65C197.759 205.669 195.021 206.434 191.072 207.453C190.117 207.707 190.053 207.771 189.225 206.816C188.27 205.733 187.57 205.032 186.232 204.396C182.22 202.421 178.335 202.995 174.705 205.351C170.375 208.153 168.146 212.293 168.209 217.451C168.273 222.546 171.776 226.749 176.807 227.45C181.137 228.023 184.767 226.494 187.633 223.246C188.206 222.546 188.716 221.782 189.353 220.89C187.06 220.89 184.194 220.89 177.062 220.89C175.724 220.89 175.406 220.062 175.852 218.979C176.679 217.005 178.208 213.694 179.099 212.038C179.29 211.656 179.736 211.019 180.692 211.019C183.939 211.019 195.912 211.019 203.873 211.019C203.745 212.738 203.745 214.458 203.491 216.177C202.79 220.763 201.071 224.966 198.269 228.66C193.683 234.71 187.697 238.467 180.118 239.486C173.877 240.314 168.082 239.104 162.987 235.283C158.275 231.716 155.6 227.004 154.899 221.145C154.071 214.203 156.109 207.962 160.312 202.485C164.834 196.562 170.82 192.805 178.144 191.468C184.131 190.385 189.862 191.086 195.021 194.588C198.396 196.817 200.816 199.874 202.408 203.568C202.79 204.141 202.535 204.459 201.771 204.65Z" fill="white"/>
<path d="M222.851 239.868C217.056 239.741 211.77 238.085 207.312 234.264C203.554 231.016 201.198 226.876 200.434 221.973C199.287 214.776 201.262 208.408 205.592 202.74C210.241 196.626 215.846 193.442 223.424 192.104C229.92 190.958 236.034 191.595 241.574 195.352C246.605 198.791 249.726 203.44 250.554 209.554C251.636 218.151 249.153 225.157 243.23 231.143C239.027 235.41 233.868 238.085 227.946 239.295C226.226 239.613 224.507 239.677 222.851 239.868ZM238.008 214.139C237.944 213.311 237.944 212.675 237.817 212.038C236.67 205.733 230.875 202.167 224.825 203.568C218.902 204.905 215.081 208.662 213.68 214.649C212.534 219.616 214.954 224.647 219.539 226.685C223.042 228.214 226.545 228.023 229.92 226.303C234.951 223.692 237.689 219.616 238.008 214.139Z" fill="white"/>
</g>
<g opacity="0.5" filter="url(#filter2_d_620_454)">
<path d="M214.467 288.293C216.118 291.034 218.265 293.049 222.063 293.049C225.253 293.049 227.291 291.427 227.291 289.186C227.291 286.5 225.197 285.549 221.686 283.987L219.761 283.147C214.205 280.739 210.513 277.722 210.513 271.346C210.513 265.472 214.913 261 221.79 261C226.685 261 230.205 262.733 232.741 267.271L226.745 271.187C225.425 268.779 224.001 267.831 221.79 267.831C219.534 267.831 218.105 269.286 218.105 271.187C218.105 273.537 219.536 274.488 222.839 275.943L224.764 276.782C231.306 279.635 235 282.545 235 289.085C235 296.137 229.554 300 222.241 300C215.09 300 210.471 296.534 208.21 291.991L214.467 288.293ZM187.268 288.972C188.477 291.155 189.578 293 192.223 293C194.753 293 196.348 291.993 196.348 288.079V261.447H204.048V288.185C204.048 296.294 199.374 299.985 192.551 299.985C186.386 299.985 182.816 296.74 181 292.831L187.268 288.972Z" fill="white"/>
</g>
<g opacity="0.5" filter="url(#filter3_d_620_454)">
<path d="M159.769 105C143.522 105 144.537 112.083 144.537 112.083L144.555 119.42H160.059V121.623H138.397C138.397 121.623 128 120.438 128 136.917C128 153.397 137.074 152.812 137.074 152.812H142.49V145.165C142.49 145.165 142.198 136.043 151.419 136.043C160.641 136.043 166.797 136.043 166.797 136.043C166.797 136.043 175.437 136.184 175.437 127.65C175.437 119.116 175.437 113.539 175.437 113.539C175.437 113.539 176.748 105 159.769 105ZM151.22 109.934C152.763 109.934 154.01 111.187 154.01 112.738C154.01 114.289 152.763 115.542 151.22 115.542C149.678 115.542 148.431 114.289 148.431 112.738C148.431 111.187 149.678 109.934 151.22 109.934Z" fill="white"/>
<path d="M160.231 169C176.478 169 175.463 161.917 175.463 161.917L175.445 154.58H159.941V152.377H181.603C181.603 152.377 192 153.562 192 137.083C192 120.603 182.926 121.188 182.926 121.188H177.51V128.835C177.51 128.835 177.802 137.957 168.581 137.957C159.359 137.957 153.203 137.957 153.203 137.957C153.203 137.957 144.563 137.816 144.563 146.35C144.563 154.884 144.563 160.461 144.563 160.461C144.563 160.461 143.252 169 160.231 169ZM168.78 164.066C167.237 164.066 165.99 162.813 165.99 161.262C165.99 159.711 167.237 158.458 168.78 158.458C170.322 158.458 171.569 159.711 171.569 161.262C171.569 162.813 170.322 164.066 168.78 164.066Z" fill="white"/>
</g>
<g filter="url(#filter4_d_620_454)">
<path d="M240.488 149.45C240.488 149.45 237.353 151.273 242.719 151.89C249.221 152.632 252.544 152.526 259.708 151.17C259.708 151.17 261.592 152.351 264.223 153.374C248.161 160.257 227.873 152.975 240.488 149.45ZM238.525 140.468C238.525 140.468 235.009 143.071 240.379 143.626C247.325 144.343 252.809 144.401 262.3 142.574C262.3 142.574 263.613 143.904 265.677 144.632C246.258 150.311 224.628 145.08 238.525 140.468Z" fill="white"/>
<path d="M255.071 125.23C259.028 129.786 254.031 133.887 254.031 133.887C254.031 133.887 264.08 128.699 259.465 122.203C255.155 116.145 251.849 113.135 269.743 102.758C269.743 102.757 241.656 109.772 255.071 125.23Z" fill="white"/>
<path d="M276.313 156.094C276.313 156.094 278.633 158.006 273.758 159.485C264.487 162.294 235.172 163.142 227.028 159.597C224.101 158.323 229.591 156.556 231.317 156.185C233.118 155.795 234.148 155.868 234.148 155.868C230.892 153.574 213.105 160.371 225.112 162.317C257.86 167.628 284.808 159.926 276.313 156.094ZM241.996 131.161C241.996 131.161 227.084 134.702 236.715 135.988C240.782 136.533 248.888 136.41 256.439 135.777C262.61 135.257 268.807 134.15 268.807 134.15C268.807 134.15 266.631 135.082 265.057 136.157C249.914 140.139 220.662 138.286 229.083 134.213C236.205 130.77 241.996 131.161 241.996 131.161ZM268.745 146.113C284.138 138.114 277.021 130.427 272.054 131.463C270.836 131.716 270.293 131.936 270.293 131.936C270.293 131.936 270.745 131.228 271.608 130.921C281.436 127.466 288.994 141.111 268.436 146.516C268.436 146.516 268.674 146.303 268.745 146.113Z" fill="white"/>
<path d="M259.465 86C259.465 86 267.99 94.5276 251.379 107.641C238.06 118.16 248.342 124.158 251.374 131.011C243.599 123.995 237.893 117.82 241.721 112.073C247.339 103.636 262.904 99.5459 259.465 86Z" fill="white"/>
<path d="M243.508 167.788C258.284 168.733 280.973 167.263 281.51 160.272C281.51 160.272 280.477 162.922 269.299 165.027C256.688 167.4 241.134 167.123 231.909 165.602C231.909 165.602 233.797 167.165 243.508 167.788Z" fill="white"/>
</g>
</g>
<path d="M144.393 326.529H143.912C142.629 314.881 132.366 305.751 120.179 305.751C116.009 305.751 112 306.853 108.473 308.741C103.822 299.454 94.2008 293 82.8154 293C67.1004 293 54.4322 305.436 54.4322 320.862C54.4322 323.066 54.7529 325.113 55.0736 327.159C46.4143 329.048 40 336.761 40 345.734C40 356.281 48.8196 364.939 59.5636 364.939L62.7707 364.781H141.025L144.393 364.939C155.137 364.939 163.956 356.438 163.956 345.734C163.956 335.03 155.137 326.529 144.393 326.529Z" fill="url(#paint2_linear_620_454)" fill-opacity="0.02"/>
<g filter="url(#filter5_b_620_454)">
<path d="M144.393 326.529H143.912C142.629 314.881 132.366 305.751 120.179 305.751C116.009 305.751 112 306.853 108.473 308.741C103.822 299.454 94.2008 293 82.8154 293C67.1004 293 54.4322 305.436 54.4322 320.862C54.4322 323.066 54.7529 325.113 55.0736 327.159C46.4143 329.048 40 336.761 40 345.734C40 356.281 48.8196 364.939 59.5636 364.939L62.7707 364.781H141.025L144.393 364.939C155.137 364.939 163.956 356.438 163.956 345.734C163.956 335.03 155.137 326.529 144.393 326.529Z" fill="url(#paint3_linear_620_454)"/>
</g>
<g filter="url(#filter6_d_620_454)">
<g filter="url(#filter7_b_620_454)">
<path d="M377.631 112.543C415.429 146.633 418.457 204.92 384.394 242.727C350.332 280.534 292.079 283.547 254.276 249.456C216.48 215.362 213.451 157.075 247.513 119.271C281.576 81.4614 339.833 78.4495 377.631 112.543Z" fill="#0A26B8" fill-opacity="0.4"/>
</g>
<path d="M402.097 247.071L390.53 259.907L408.25 275.893L419.817 263.057L402.097 247.071Z" fill="#F6F7FB"/>
<path fill-rule="evenodd" clip-rule="evenodd" d="M236.513 109.35C276.051 65.4645 343.669 61.9682 387.544 101.54L387.542 101.541C427.789 137.841 434.073 197.772 404.318 241.307L414.81 250.772L395.535 272.163L385.043 262.701C344.839 296.815 284.613 296.756 244.365 260.455C200.493 220.885 196.977 153.232 236.513 109.35ZM254.276 249.456C292.079 283.548 350.332 280.534 384.394 242.727C418.457 204.92 415.429 146.633 377.631 112.543C339.833 78.4495 281.576 81.4615 247.513 119.271C213.451 157.075 216.48 215.362 254.276 249.456Z" fill="url(#paint4_linear_620_454)"/>
<path d="M510.08 336.698C525.727 350.811 505.52 371.365 490.807 358.088C471.308 340.505 402.56 278.501 402.56 278.501L421.837 257.107C421.837 257.107 493.149 321.426 510.079 336.696L510.08 336.698Z" fill="#21214C"/>
</g>
<path d="M436.221 306.651H437.063C439.307 286.274 457.259 270.304 478.577 270.304C485.87 270.304 492.883 272.231 499.054 275.536C507.189 259.29 524.019 248 543.934 248C571.424 248 593.583 269.753 593.583 296.738C593.583 300.593 593.022 304.173 592.461 307.752C607.609 311.056 618.829 324.549 618.829 340.244C618.829 358.693 603.401 373.837 584.607 373.837L578.997 373.562H442.112L436.221 373.837C417.428 373.837 402 358.968 402 340.244C402 321.52 417.428 306.651 436.221 306.651Z" fill="url(#paint5_linear_620_454)" fill-opacity="0.02"/>
<g filter="url(#filter8_b_620_454)">
<path d="M436.221 306.651H437.063C439.307 286.274 457.259 270.304 478.577 270.304C485.87 270.304 492.883 272.231 499.054 275.536C507.189 259.29 524.019 248 543.934 248C571.424 248 593.583 269.753 593.583 296.738C593.583 300.593 593.022 304.173 592.461 307.752C607.609 311.056 618.829 324.549 618.829 340.244C618.829 358.693 603.401 373.837 584.607 373.837L578.997 373.562H442.112L436.221 373.837C417.428 373.837 402 358.968 402 340.244C402 321.52 417.428 306.651 436.221 306.651Z" fill="url(#paint6_linear_620_454)"/>
</g>
<path d="M460.393 344.529H459.912C458.629 332.881 448.366 323.751 436.179 323.751C432.009 323.751 428 324.853 424.473 326.741C419.822 317.454 410.201 311 398.815 311C383.1 311 370.432 323.436 370.432 338.862C370.432 341.066 370.753 343.113 371.074 345.159C362.414 347.048 356 354.761 356 363.734C356 374.281 364.82 382.939 375.564 382.939L378.771 382.781H457.025L460.393 382.939C471.137 382.939 479.956 374.438 479.956 363.734C479.956 353.03 471.137 344.529 460.393 344.529Z" fill="url(#paint7_linear_620_454)" fill-opacity="0.02"/>
<g filter="url(#filter9_b_620_454)">
<path d="M460.393 344.529H459.912C458.629 332.881 448.366 323.751 436.179 323.751C432.009 323.751 428 324.853 424.473 326.741C419.822 317.454 410.201 311 398.815 311C383.1 311 370.432 323.436 370.432 338.862C370.432 341.066 370.753 343.113 371.074 345.159C362.414 347.048 356 354.761 356 363.734C356 374.281 364.82 382.939 375.564 382.939L378.771 382.781H457.025L460.393 382.939C471.137 382.939 479.956 374.438 479.956 363.734C479.956 353.03 471.137 344.529 460.393 344.529Z" fill="url(#paint8_linear_620_454)"/>
</g>
<defs>
<filter id="filter0_d_620_454" x="82" y="57" width="261" height="308.822" filterUnits="userSpaceOnUse" color-interpolation-filters="sRGB">
<feFlood flood-opacity="0" result="BackgroundImageFix"/>
<feColorMatrix in="SourceAlpha" type="matrix" values="0 0 0 0 0 0 0 0 0 0 0 0 0 0 0 0 0 0 127 0" result="hardAlpha"/>
<feOffset dy="10"/>
<feGaussianBlur stdDeviation="10"/>
<feComposite in2="hardAlpha" operator="out"/>
<feColorMatrix type="matrix" values="0 0 0 0 0.0666667 0 0 0 0 0.0666667 0 0 0 0 0.207843 0 0 0 0.2 0"/>
<feBlend mode="normal" in2="BackgroundImageFix" result="effect1_dropShadow_620_454"/>
<feBlend mode="normal" in="SourceGraphic" in2="effect1_dropShadow_620_454" result="shape"/>
</filter>
<filter id="filter1_d_620_454" x="110" y="183" width="150.801" height="68.8679" filterUnits="userSpaceOnUse" color-interpolation-filters="sRGB">
<feFlood flood-opacity="0" result="BackgroundImageFix"/>
<feColorMatrix in="SourceAlpha" type="matrix" values="0 0 0 0 0 0 0 0 0 0 0 0 0 0 0 0 0 0 127 0" result="hardAlpha"/>
<feOffset dy="2"/>
<feGaussianBlur stdDeviation="5"/>
<feComposite in2="hardAlpha" operator="out"/>
<feColorMatrix type="matrix" values="0 0 0 0 0.0865377 0 0 0 0 0.535446 0 0 0 0 0.508511 0 0 0 0.2 0"/>
<feBlend mode="normal" in2="BackgroundImageFix" result="effect1_dropShadow_620_454"/>
<feBlend mode="normal" in="SourceGraphic" in2="effect1_dropShadow_620_454" result="shape"/>
</filter>
<filter id="filter2_d_620_454" x="171" y="253" width="74" height="59" filterUnits="userSpaceOnUse" color-interpolation-filters="sRGB">
<feFlood flood-opacity="0" result="BackgroundImageFix"/>
<feColorMatrix in="SourceAlpha" type="matrix" values="0 0 0 0 0 0 0 0 0 0 0 0 0 0 0 0 0 0 127 0" result="hardAlpha"/>
<feOffset dy="2"/>
<feGaussianBlur stdDeviation="5"/>
<feComposite in2="hardAlpha" operator="out"/>
<feColorMatrix type="matrix" values="0 0 0 0 0.0865377 0 0 0 0 0.535446 0 0 0 0 0.508511 0 0 0 0.2 0"/>
<feBlend mode="normal" in2="BackgroundImageFix" result="effect1_dropShadow_620_454"/>
<feBlend mode="normal" in="SourceGraphic" in2="effect1_dropShadow_620_454" result="shape"/>
</filter>
<filter id="filter3_d_620_454" x="118" y="97" width="84" height="84" filterUnits="userSpaceOnUse" color-interpolation-filters="sRGB">
<feFlood flood-opacity="0" result="BackgroundImageFix"/>
<feColorMatrix in="SourceAlpha" type="matrix" values="0 0 0 0 0 0 0 0 0 0 0 0 0 0 0 0 0 0 127 0" result="hardAlpha"/>
<feOffset dy="2"/>
<feGaussianBlur stdDeviation="5"/>
<feComposite in2="hardAlpha" operator="out"/>
<feColorMatrix type="matrix" values="0 0 0 0 0.0865377 0 0 0 0 0.535446 0 0 0 0 0.508511 0 0 0 0.2 0"/>
<feBlend mode="normal" in2="BackgroundImageFix" result="effect1_dropShadow_620_454"/>
<feBlend mode="normal" in="SourceGraphic" in2="effect1_dropShadow_620_454" result="shape"/>
</filter>
<filter id="filter4_d_620_454" x="211" y="78" width="80.5101" height="102.045" filterUnits="userSpaceOnUse" color-interpolation-filters="sRGB">
<feFlood flood-opacity="0" result="BackgroundImageFix"/>
<feColorMatrix in="SourceAlpha" type="matrix" values="0 0 0 0 0 0 0 0 0 0 0 0 0 0 0 0 0 0 127 0" result="hardAlpha"/>
<feOffset dy="2"/>
<feGaussianBlur stdDeviation="5"/>
<feComposite in2="hardAlpha" operator="out"/>
<feColorMatrix type="matrix" values="0 0 0 0 0.0865377 0 0 0 0 0.535446 0 0 0 0 0.508511 0 0 0 0.2 0"/>
<feBlend mode="normal" in2="BackgroundImageFix" result="effect1_dropShadow_620_454"/>
<feBlend mode="normal" in="SourceGraphic" in2="effect1_dropShadow_620_454" result="shape"/>
</filter>
<filter id="filter5_b_620_454" x="36" y="289" width="131.956" height="79.9385" filterUnits="userSpaceOnUse" color-interpolation-filters="sRGB">
<feFlood flood-opacity="0" result="BackgroundImageFix"/>
<feGaussianBlur in="BackgroundImageFix" stdDeviation="2"/>
<feComposite in2="SourceAlpha" operator="in" result="effect1_backgroundBlur_620_454"/>
<feBlend mode="normal" in="SourceGraphic" in2="effect1_backgroundBlur_620_454" result="shape"/>
</filter>
<filter id="filter6_d_620_454" x="193.016" y="65.0049" width="338.726" height="320.366" filterUnits="userSpaceOnUse" color-interpolation-filters="sRGB">
<feFlood flood-opacity="0" result="BackgroundImageFix"/>
<feColorMatrix in="SourceAlpha" type="matrix" values="0 0 0 0 0 0 0 0 0 0 0 0 0 0 0 0 0 0 127 0" result="hardAlpha"/>
<feOffset dy="7"/>
<feGaussianBlur stdDeviation="8"/>
<feComposite in2="hardAlpha" operator="out"/>
<feColorMatrix type="matrix" values="0 0 0 0 0.129412 0 0 0 0 0.129412 0 0 0 0 0.298039 0 0 0 0.2 0"/>
<feBlend mode="normal" in2="BackgroundImageFix" result="effect1_dropShadow_620_454"/>
<feBlend mode="normal" in="SourceGraphic" in2="effect1_dropShadow_620_454" result="shape"/>
</filter>
<filter id="filter7_b_620_454" x="218.823" y="83.8196" width="194.263" height="194.357" filterUnits="userSpaceOnUse" color-interpolation-filters="sRGB">
<feFlood flood-opacity="0" result="BackgroundImageFix"/>
<feGaussianBlur in="BackgroundImageFix" stdDeviation="2.5"/>
<feComposite in2="SourceAlpha" operator="in" result="effect1_backgroundBlur_620_454"/>
<feBlend mode="normal" in="SourceGraphic" in2="effect1_backgroundBlur_620_454" result="shape"/>
</filter>
<filter id="filter8_b_620_454" x="397" y="243" width="226.829" height="135.837" filterUnits="userSpaceOnUse" color-interpolation-filters="sRGB">
<feFlood flood-opacity="0" result="BackgroundImageFix"/>
<feGaussianBlur in="BackgroundImageFix" stdDeviation="2.5"/>
<feComposite in2="SourceAlpha" operator="in" result="effect1_backgroundBlur_620_454"/>
<feBlend mode="normal" in="SourceGraphic" in2="effect1_backgroundBlur_620_454" result="shape"/>
</filter>
<filter id="filter9_b_620_454" x="352" y="307" width="131.956" height="79.9385" filterUnits="userSpaceOnUse" color-interpolation-filters="sRGB">
<feFlood flood-opacity="0" result="BackgroundImageFix"/>
<feGaussianBlur in="BackgroundImageFix" stdDeviation="2"/>
<feComposite in2="SourceAlpha" operator="in" result="effect1_backgroundBlur_620_454"/>
<feBlend mode="normal" in="SourceGraphic" in2="effect1_backgroundBlur_620_454" result="shape"/>
</filter>
<linearGradient id="paint0_linear_620_454" x1="40" y1="34" x2="322.643" y2="501.868" gradientUnits="userSpaceOnUse">
<stop stop-color="#9043C6"/>
<stop offset="1" stop-color="#0A26B8"/>
</linearGradient>
<linearGradient id="paint1_linear_620_454" x1="114" y1="54" x2="276.227" y2="164.316" gradientUnits="userSpaceOnUse">
<stop stop-color="#FFE792"/>
<stop offset="1" stop-color="#43B59A"/>
</linearGradient>
<linearGradient id="paint2_linear_620_454" x1="64.9959" y1="291.693" x2="134.46" y2="396.929" gradientUnits="userSpaceOnUse">
<stop offset="1.61469e-07" stop-color="#D9DCFA"/>
<stop offset="1" stop-color="#D9DCFA" stop-opacity="0.2"/>
</linearGradient>
<linearGradient id="paint3_linear_620_454" x1="64.9959" y1="291.693" x2="134.46" y2="396.929" gradientUnits="userSpaceOnUse">
<stop offset="1.61469e-07" stop-color="#D9DCFA"/>
<stop offset="1" stop-color="#D9DCFA" stop-opacity="0.2"/>
</linearGradient>
<linearGradient id="paint4_linear_620_454" x1="184" y1="106.991" x2="443.419" y2="98.6241" gradientUnits="userSpaceOnUse">
<stop stop-color="#FFE792"/>
<stop offset="1" stop-color="#F99048"/>
</linearGradient>
<linearGradient id="paint5_linear_620_454" x1="575.105" y1="245.715" x2="453.597" y2="429.797" gradientUnits="userSpaceOnUse">
<stop offset="1.61469e-07" stop-color="#D9DCFA"/>
<stop offset="1" stop-color="#D9DCFA" stop-opacity="0.2"/>
</linearGradient>
<linearGradient id="paint6_linear_620_454" x1="575.105" y1="245.715" x2="453.597" y2="429.797" gradientUnits="userSpaceOnUse">
<stop offset="1.61469e-07" stop-color="#D9DCFA"/>
<stop offset="1" stop-color="#D9DCFA" stop-opacity="0.2"/>
</linearGradient>
<linearGradient id="paint7_linear_620_454" x1="380.996" y1="309.693" x2="450.46" y2="414.929" gradientUnits="userSpaceOnUse">
<stop offset="1.61469e-07" stop-color="#D9DCFA"/>
<stop offset="1" stop-color="#D9DCFA" stop-opacity="0.2"/>
</linearGradient>
<linearGradient id="paint8_linear_620_454" x1="380.996" y1="309.693" x2="450.46" y2="414.929" gradientUnits="userSpaceOnUse">
<stop offset="1.61469e-07" stop-color="#D9DCFA"/>
<stop offset="1" stop-color="#D9DCFA" stop-opacity="0.2"/>
</linearGradient>
</defs>
</svg>
